<svg xmlns="http://www.w3.org/2000/svg" xmlns:xlink="http://www.w3.org/1999/xlink" width="100%" height="100%" version="1.1" viewBox="0 0 16 16" xml:space="preserve" style="fill-rule:evenodd;clip-rule:evenodd;stroke-linejoin:round;stroke-miterlimit:2"><g transform="matrix(1,0,0,1,-38,0)"><g id="Forums" transform="matrix(1,0,0,1,-63.6667,0)"><rect width="16" height="16" x="101.667" y="0" style="fill:none"/><g><path d="M128,2L116,2L116,9.614L119.056,9.614L119.017,13L123.231,9.614L128,9.614L128,2ZM121.063,9.022L121.076,7.922L118,7.922C118,7.922 118,3.692 118,3.692L126,3.692L126,7.922C126,7.922 122.432,7.922 122.432,7.922L121.063,9.022Z" style="fill:#6e6e6e" transform="matrix(1,0,0,1.18182,-12.3333,-0.363636)"/></g></g></g></svg>